<?xml version="1.0" encoding="utf-8"?>
<svg version="1.1" xmlns:xlink="http://www.w3.org/1999/xlink" width="40px" height="40px" xmlns="http://www.w3.org/2000/svg">
  <defs>
    <filter x="29px" y="2383px" width="40px" height="40px" filterUnits="userSpaceOnUse" id="filter206">
      <feOffset dx="1" dy="1" in="SourceAlpha" result="shadowOffsetInner" />
      <feGaussianBlur stdDeviation="2.5" in="shadowOffsetInner" result="shadowGaussian" />
      <feComposite in2="shadowGaussian" operator="atop" in="SourceAlpha" result="shadowComposite" />
      <feColorMatrix type="matrix" values="0 0 0 0 0  0 0 0 0 0  0 0 0 0 0  0 0 0 0.698039215686274 0  " in="shadowComposite" />
    </filter>
    <g id="widget207">
      <path d="M 48 2387  C 56.4 2387  63 2393.6  63 2402  C 63 2410.4  56.4 2417  48 2417  C 39.6 2417  33 2410.4  33 2402  C 33 2393.6  39.6 2387  48 2387  Z " fill-rule="nonzero" fill="#f59a23" stroke="none" />
      <path d="M 48 2387.5  C 56.12 2387.5  62.5 2393.88  62.5 2402  C 62.5 2410.12  56.12 2416.5  48 2416.5  C 39.88 2416.5  33.5 2410.12  33.5 2402  C 33.5 2393.88  39.88 2387.5  48 2387.5  Z " stroke-width="1" stroke="#ffffff" fill="none" />
    </g>
  </defs>
  <g transform="matrix(1 0 0 1 -29 -2383 )">
    <use xlink:href="#widget207" filter="url(#filter206)" />
    <use xlink:href="#widget207" />
  </g>
</svg>