<?xml version="1.0" encoding="utf-8"?>
<svg version="1.1" xmlns:xlink="http://www.w3.org/1999/xlink" width="14px" height="14px" xmlns="http://www.w3.org/2000/svg">
  <g transform="matrix(1 0 0 1 -1787 -2688 )">
    <path d="M 1794 2688  C 1797.92 2688  1801 2691.08  1801 2695  C 1801 2698.92  1797.92 2702  1794 2702  C 1790.08 2702  1787 2698.92  1787 2695  C 1787 2691.08  1790.08 2688  1794 2688  Z " fill-rule="nonzero" fill="#ffffff" stroke="none" fill-opacity="0" />
    <path d="M 1794 2688.5  C 1797.64 2688.5  1800.5 2691.36  1800.5 2695  C 1800.5 2698.64  1797.64 2701.5  1794 2701.5  C 1790.36 2701.5  1787.5 2698.64  1787.5 2695  C 1787.5 2691.36  1790.36 2688.5  1794 2688.5  Z " stroke-width="1" stroke="#d9d9d9" fill="none" />
  </g>
</svg>