<?xml version="1.0" encoding="utf-8"?>
<svg version="1.1" xmlns:xlink="http://www.w3.org/1999/xlink" width="14px" height="14px" xmlns="http://www.w3.org/2000/svg">
  <g transform="matrix(1 0 0 1 -1861 -2688 )">
    <path d="M 1868 2688  C 1871.92 2688  1875 2691.08  1875 2695  C 1875 2698.92  1871.92 2702  1868 2702  C 1864.08 2702  1861 2698.92  1861 2695  C 1861 2691.08  1864.08 2688  1868 2688  Z " fill-rule="nonzero" fill="#ffffff" stroke="none" fill-opacity="0" />
    <path d="M 1868 2688.5  C 1871.64 2688.5  1874.5 2691.36  1874.5 2695  C 1874.5 2698.64  1871.64 2701.5  1868 2701.5  C 1864.36 2701.5  1861.5 2698.64  1861.5 2695  C 1861.5 2691.36  1864.36 2688.5  1868 2688.5  Z " stroke-width="1" stroke="#1890ff" fill="none" />
  </g>
</svg>