<?xml version="1.0" encoding="utf-8"?>
<svg version="1.1" xmlns:xlink="http://www.w3.org/1999/xlink" width="510px" height="589px" xmlns="http://www.w3.org/2000/svg">
  <g transform="matrix(1 0 0 1 -27 -69 )">
    <path d="M 28 73  A 3 3 0 0 1 31 70 L 533 70  A 3 3 0 0 1 536 73 L 536 654  A 3 3 0 0 1 533 657 L 31 657  A 3 3 0 0 1 28 654 L 28 73  Z " fill-rule="nonzero" fill="#1890ff" stroke="none" fill-opacity="0.0980392156862745" />
    <path d="M 27.5 73  A 3.5 3.5 0 0 1 31 69.5 L 533 69.5  A 3.5 3.5 0 0 1 536.5 73 L 536.5 654  A 3.5 3.5 0 0 1 533 657.5 L 31 657.5  A 3.5 3.5 0 0 1 27.5 654 L 27.5 73  Z " stroke-width="1" stroke-dasharray="9,4" stroke="#1890ff" fill="none" stroke-dashoffset="0.5" />
  </g>
</svg>