<?xml version="1.0" encoding="utf-8"?>
<svg version="1.1" xmlns:xlink="http://www.w3.org/1999/xlink" width="510px" height="259px" xmlns="http://www.w3.org/2000/svg">
  <g transform="matrix(1 0 0 1 -27 -718 )">
    <path d="M 28 722  A 3 3 0 0 1 31 719 L 533 719  A 3 3 0 0 1 536 722 L 536 973  A 3 3 0 0 1 533 976 L 31 976  A 3 3 0 0 1 28 973 L 28 722  Z " fill-rule="nonzero" fill="#1890ff" stroke="none" fill-opacity="0.0980392156862745" />
    <path d="M 27.5 722  A 3.5 3.5 0 0 1 31 718.5 L 533 718.5  A 3.5 3.5 0 0 1 536.5 722 L 536.5 973  A 3.5 3.5 0 0 1 533 976.5 L 31 976.5  A 3.5 3.5 0 0 1 27.5 973 L 27.5 722  Z " stroke-width="1" stroke-dasharray="9,4" stroke="#1890ff" fill="none" stroke-dashoffset="0.5" />
  </g>
</svg>