<?xml version="1.0" encoding="utf-8"?>
<svg version="1.1" xmlns:xlink="http://www.w3.org/1999/xlink" width="510px" height="43px" xmlns="http://www.w3.org/2000/svg">
  <g transform="matrix(1 0 0 1 -27 -669 )">
    <path d="M 28 673  A 3 3 0 0 1 31 670 L 533 670  A 3 3 0 0 1 536 673 L 536 708  A 3 3 0 0 1 533 711 L 31 711  A 3 3 0 0 1 28 708 L 28 673  Z " fill-rule="nonzero" fill="#1890ff" stroke="none" fill-opacity="0.0980392156862745" />
    <path d="M 27.5 673  A 3.5 3.5 0 0 1 31 669.5 L 533 669.5  A 3.5 3.5 0 0 1 536.5 673 L 536.5 708  A 3.5 3.5 0 0 1 533 711.5 L 31 711.5  A 3.5 3.5 0 0 1 27.5 708 L 27.5 673  Z " stroke-width="1" stroke-dasharray="9,4" stroke="#1890ff" fill="none" stroke-dashoffset="0.5" />
  </g>
</svg>