<?xml version="1.0" encoding="utf-8"?>
<svg version="1.1" xmlns:xlink="http://www.w3.org/1999/xlink" width="510px" height="48px" xmlns="http://www.w3.org/2000/svg">
  <g transform="matrix(1 0 0 1 -27 -1035 )">
    <path d="M 28 1039  A 3 3 0 0 1 31 1036 L 533 1036  A 3 3 0 0 1 536 1039 L 536 1079  A 3 3 0 0 1 533 1082 L 31 1082  A 3 3 0 0 1 28 1079 L 28 1039  Z " fill-rule="nonzero" fill="#1890ff" stroke="none" fill-opacity="0.0980392156862745" />
    <path d="M 27.5 1039  A 3.5 3.5 0 0 1 31 1035.5 L 533 1035.5  A 3.5 3.5 0 0 1 536.5 1039 L 536.5 1079  A 3.5 3.5 0 0 1 533 1082.5 L 31 1082.5  A 3.5 3.5 0 0 1 27.5 1079 L 27.5 1039  Z " stroke-width="1" stroke-dasharray="9,4" stroke="#1890ff" fill="none" stroke-dashoffset="0.5" />
  </g>
</svg>