<?xml version="1.0" encoding="utf-8"?>
<svg version="1.1" xmlns:xlink="http://www.w3.org/1999/xlink" width="40px" height="50px" xmlns="http://www.w3.org/2000/svg">
  <defs>
    <filter x="1282px" y="23px" width="40px" height="50px" filterUnits="userSpaceOnUse" id="filter153">
      <feOffset dx="1" dy="1" in="SourceAlpha" result="shadowOffsetInner" />
      <feGaussianBlur stdDeviation="2.5" in="shadowOffsetInner" result="shadowGaussian" />
      <feComposite in2="shadowGaussian" operator="atop" in="SourceAlpha" result="shadowComposite" />
      <feColorMatrix type="matrix" values="0 0 0 0 0  0 0 0 0 0  0 0 0 0 0  0 0 0 0.698039215686274 0  " in="shadowComposite" />
    </filter>
    <g id="widget154">
      <path d="M 1301 66.0369284683536  C 1295.2 56.4073405959099  1286.5 50.6295878724437  1286.5 41  C 1286.5 35.9857142857143  1289.4 27.5  1301 27.5  C 1312.6 27.5  1315.5 35.9857142857143  1315.5 41  C 1315.5 50.6295878724437  1306.8 56.4073405959099  1301 66.0369284683536  Z " fill-rule="nonzero" fill="#009dd9" stroke="none" />
      <path d="M 1301 67  C 1295 57  1286 51  1286 41  C 1286 35.8  1289 27  1301 27  C 1313 27  1316 35.8  1316 41  C 1316 51  1307 57  1301 67  Z M 1301 65.0738569367072  C 1306.6 55.8146811918198  1315 50.2591757448874  1315 41  C 1315 36.1714285714286  1312.2 28  1301 28  C 1289.8 28  1287 36.1714285714286  1287 41  C 1287 50.2591757448874  1295.4 55.8146811918198  1301 65.0738569367072  Z " fill-rule="nonzero" fill="#ffffff" stroke="none" />
    </g>
  </defs>
  <g transform="matrix(1 0 0 1 -1282 -23 )">
    <use xlink:href="#widget154" filter="url(#filter153)" />
    <use xlink:href="#widget154" />
  </g>
</svg>