<?xml version="1.0" encoding="utf-8"?>
<svg version="1.1" xmlns:xlink="http://www.w3.org/1999/xlink" width="14px" height="14px" xmlns="http://www.w3.org/2000/svg">
  <g transform="matrix(1 0 0 1 -189 -218 )">
    <path d="M 196 218  C 199.92 218  203 221.08  203 225  C 203 228.92  199.92 232  196 232  C 192.08 232  189 228.92  189 225  C 189 221.08  192.08 218  196 218  Z " fill-rule="nonzero" fill="#ffffff" stroke="none" fill-opacity="0" />
    <path d="M 196 218.5  C 199.64 218.5  202.5 221.36  202.5 225  C 202.5 228.64  199.64 231.5  196 231.5  C 192.36 231.5  189.5 228.64  189.5 225  C 189.5 221.36  192.36 218.5  196 218.5  Z " stroke-width="1" stroke="#d9d9d9" fill="none" />
  </g>
</svg>