<?xml version="1.0" encoding="utf-8"?>
<svg version="1.1" xmlns:xlink="http://www.w3.org/1999/xlink" width="40px" height="40px" xmlns="http://www.w3.org/2000/svg">
  <defs>
    <filter x="31px" y="954px" width="40px" height="40px" filterUnits="userSpaceOnUse" id="filter155">
      <feOffset dx="1" dy="1" in="SourceAlpha" result="shadowOffsetInner" />
      <feGaussianBlur stdDeviation="2.5" in="shadowOffsetInner" result="shadowGaussian" />
      <feComposite in2="shadowGaussian" operator="atop" in="SourceAlpha" result="shadowComposite" />
      <feColorMatrix type="matrix" values="0 0 0 0 0  0 0 0 0 0  0 0 0 0 0  0 0 0 0.698039215686274 0  " in="shadowComposite" />
    </filter>
    <g id="widget156">
      <path d="M 50 958  C 58.4 958  65 964.6  65 973  C 65 981.4  58.4 988  50 988  C 41.6 988  35 981.4  35 973  C 35 964.6  41.6 958  50 958  Z " fill-rule="nonzero" fill="#009dd9" stroke="none" />
      <path d="M 50 958.5  C 58.12 958.5  64.5 964.88  64.5 973  C 64.5 981.12  58.12 987.5  50 987.5  C 41.88 987.5  35.5 981.12  35.5 973  C 35.5 964.88  41.88 958.5  50 958.5  Z " stroke-width="1" stroke="#ffffff" fill="none" />
    </g>
  </defs>
  <g transform="matrix(1 0 0 1 -31 -954 )">
    <use xlink:href="#widget156" filter="url(#filter155)" />
    <use xlink:href="#widget156" />
  </g>
</svg>