<?xml version="1.0" encoding="utf-8"?>
<svg version="1.1" xmlns:xlink="http://www.w3.org/1999/xlink" width="18px" height="18px" preserveAspectRatio="xMinYMid meet" viewBox="3135 937  18 16" xmlns="http://www.w3.org/2000/svg">
  <path d="M 2294 368.5  L 2281 368.5  A 5 5 0 0 0 2276.5 373.5 L 2276.5 821  A 5 5 0 0 0 2281.5 826.5 L 3106 826.5  A 5 5 0 0 1 3111.5 831.5 L 3111.5 940  A 5 5 0 0 0 3116.5 945.5 L 3146 945.5  " stroke-width="1" stroke="#1890ff" fill="none" />
  <path d="M 3144 942.5  A 3 3 0 0 0 3141 945.5 A 3 3 0 0 0 3144 948.5 A 3 3 0 0 0 3147 945.5 A 3 3 0 0 0 3144 942.5 Z " fill-rule="nonzero" fill="#1890ff" stroke="none" />
</svg>