<?xml version="1.0" encoding="utf-8"?>
<svg version="1.1" xmlns:xlink="http://www.w3.org/1999/xlink" width="1166px" height="32px" xmlns="http://www.w3.org/2000/svg">
  <g transform="matrix(1 0 0 1 -65 -396 )">
    <path d="M 66 400  A 3 3 0 0 1 69 397 L 1227 397  A 3 3 0 0 1 1230 400 L 1230 424  A 3 3 0 0 1 1227 427 L 69 427  A 3 3 0 0 1 66 424 L 66 400  Z " fill-rule="nonzero" fill="#ffffff" stroke="none" />
    <path d="M 65.5 400  A 3.5 3.5 0 0 1 69 396.5 L 1227 396.5  A 3.5 3.5 0 0 1 1230.5 400 L 1230.5 424  A 3.5 3.5 0 0 1 1227 427.5 L 69 427.5  A 3.5 3.5 0 0 1 65.5 424 L 65.5 400  Z " stroke-width="1" stroke-dasharray="9,4" stroke="#d9d9d9" fill="none" stroke-dashoffset="0.5" />
  </g>
</svg>