<?xml version="1.0" encoding="utf-8"?>
<svg version="1.1" xmlns:xlink="http://www.w3.org/1999/xlink" width="40px" height="40px" xmlns="http://www.w3.org/2000/svg">
  <defs>
    <filter x="28px" y="39px" width="40px" height="40px" filterUnits="userSpaceOnUse" id="filter12">
      <feOffset dx="1" dy="1" in="SourceAlpha" result="shadowOffsetInner" />
      <feGaussianBlur stdDeviation="2.5" in="shadowOffsetInner" result="shadowGaussian" />
      <feComposite in2="shadowGaussian" operator="atop" in="SourceAlpha" result="shadowComposite" />
      <feColorMatrix type="matrix" values="0 0 0 0 0  0 0 0 0 0  0 0 0 0 0  0 0 0 0.698039215686274 0  " in="shadowComposite" />
    </filter>
    <g id="widget13">
      <path d="M 47 43  C 55.4 43  62 49.6  62 58  C 62 66.4  55.4 73  47 73  C 38.6 73  32 66.4  32 58  C 32 49.6  38.6 43  47 43  Z " fill-rule="nonzero" fill="#009dd9" stroke="none" />
      <path d="M 47 43.5  C 55.12 43.5  61.5 49.88  61.5 58  C 61.5 66.12  55.12 72.5  47 72.5  C 38.88 72.5  32.5 66.12  32.5 58  C 32.5 49.88  38.88 43.5  47 43.5  Z " stroke-width="1" stroke="#ffffff" fill="none" />
    </g>
  </defs>
  <g transform="matrix(1 0 0 1 -28 -39 )">
    <use xlink:href="#widget13" filter="url(#filter12)" />
    <use xlink:href="#widget13" />
  </g>
</svg>