<?xml version="1.0" encoding="utf-8"?>
<svg version="1.1" xmlns:xlink="http://www.w3.org/1999/xlink" width="40px" height="40px" xmlns="http://www.w3.org/2000/svg">
  <defs>
    <mask fill="white" id="clip227">
      <path d="M 0 15  C 0 6.60000000000036  6.6 0  15 0  C 23.4 0  30 6.60000000000036  30 15  C 30 23.3999999999996  23.4 30  15 30  C 10.6309783526148 30  6.74890441327343 28.2145250705053  4.0291702700993 25.3189672996405  C 1.51986948360321 22.6474468460647  0 19.0309783526145  0 15  Z " fill-rule="evenodd" />
    </mask>
    <filter x="28px" y="4903px" width="40px" height="40px" filterUnits="userSpaceOnUse" id="filter228">
      <feOffset dx="1" dy="1" in="SourceAlpha" result="shadowOffsetInner" />
      <feGaussianBlur stdDeviation="2.5" in="shadowOffsetInner" result="shadowGaussian" />
      <feComposite in2="shadowGaussian" operator="atop" in="SourceAlpha" result="shadowComposite" />
      <feColorMatrix type="matrix" values="0 0 0 0 0  0 0 0 0 0  0 0 0 0 0  0 0 0 0.698039215686274 0  " in="shadowComposite" />
    </filter>
    <g id="widget229">
      <path d="M 0 15  C 0 6.60000000000036  6.6 0  15 0  C 23.4 0  30 6.60000000000036  30 15  C 30 23.3999999999996  23.4 30  15 30  C 10.6309783526148 30  6.74890441327343 28.2145250705053  4.0291702700993 25.3189672996405  C 1.51986948360321 22.6474468460647  0 19.0309783526145  0 15  Z " fill-rule="nonzero" fill="#009dd9" stroke="none" transform="matrix(1 0 0 1 32 4907 )" />
      <path d="M 0 15  C 0 6.60000000000036  6.6 0  15 0  C 23.4 0  30 6.60000000000036  30 15  C 30 23.3999999999996  23.4 30  15 30  C 10.6309783526148 30  6.74890441327343 28.2145250705053  4.0291702700993 25.3189672996405  C 1.51986948360321 22.6474468460647  0 19.0309783526145  0 15  Z " stroke-width="2" stroke="#ffffff" fill="none" transform="matrix(1 0 0 1 32 4907 )" mask="url(#clip227)" />
    </g>
  </defs>
  <g transform="matrix(1 0 0 1 -28 -4903 )">
    <use xlink:href="#widget229" filter="url(#filter228)" />
    <use xlink:href="#widget229" />
  </g>
</svg>