<?xml version="1.0" encoding="utf-8"?>
<svg version="1.1" xmlns:xlink="http://www.w3.org/1999/xlink" width="1064px" height="32px" xmlns="http://www.w3.org/2000/svg">
  <g transform="matrix(1 0 0 1 3489 -3590 )">
    <path d="M -3488 3594  A 3 3 0 0 1 -3485 3591 L -2429 3591  A 3 3 0 0 1 -2426 3594 L -2426 3618  A 3 3 0 0 1 -2429 3621 L -3485 3621  A 3 3 0 0 1 -3488 3618 L -3488 3594  Z " fill-rule="nonzero" fill="#ffffff" stroke="none" />
    <path d="M -3488.5 3594  A 3.5 3.5 0 0 1 -3485 3590.5 L -2429 3590.5  A 3.5 3.5 0 0 1 -2425.5 3594 L -2425.5 3618  A 3.5 3.5 0 0 1 -2429 3621.5 L -3485 3621.5  A 3.5 3.5 0 0 1 -3488.5 3618 L -3488.5 3594  Z " stroke-width="1" stroke-dasharray="9,4" stroke="#d9d9d9" fill="none" stroke-dashoffset="0.5" />
  </g>
</svg>