<?xml version="1.0" encoding="utf-8"?>
<svg version="1.1" xmlns:xlink="http://www.w3.org/1999/xlink" width="14px" height="14px" xmlns="http://www.w3.org/2000/svg">
  <g transform="matrix(1 0 0 1 2202 -3272 )">
    <path d="M -2195 3272  C -2191.08 3272  -2188 3275.08  -2188 3279  C -2188 3282.92  -2191.08 3286  -2195 3286  C -2198.92 3286  -2202 3282.92  -2202 3279  C -2202 3275.08  -2198.92 3272  -2195 3272  Z " fill-rule="nonzero" fill="#ffffff" stroke="none" fill-opacity="0" />
    <path d="M -2195 3272.5  C -2191.36 3272.5  -2188.5 3275.36  -2188.5 3279  C -2188.5 3282.64  -2191.36 3285.5  -2195 3285.5  C -2198.64 3285.5  -2201.5 3282.64  -2201.5 3279  C -2201.5 3275.36  -2198.64 3272.5  -2195 3272.5  Z " stroke-width="1" stroke="#d9d9d9" fill="none" />
  </g>
</svg>