<?xml version="1.0" encoding="utf-8"?>
<svg version="1.1" xmlns:xlink="http://www.w3.org/1999/xlink" width="14px" height="14px" xmlns="http://www.w3.org/2000/svg">
  <g transform="matrix(1 0 0 1 2128 -3272 )">
    <path d="M -2121 3272  C -2117.08 3272  -2114 3275.08  -2114 3279  C -2114 3282.92  -2117.08 3286  -2121 3286  C -2124.92 3286  -2128 3282.92  -2128 3279  C -2128 3275.08  -2124.92 3272  -2121 3272  Z " fill-rule="nonzero" fill="#ffffff" stroke="none" fill-opacity="0" />
    <path d="M -2121 3272.5  C -2117.36 3272.5  -2114.5 3275.36  -2114.5 3279  C -2114.5 3282.64  -2117.36 3285.5  -2121 3285.5  C -2124.64 3285.5  -2127.5 3282.64  -2127.5 3279  C -2127.5 3275.36  -2124.64 3272.5  -2121 3272.5  Z " stroke-width="1" stroke="#108ee9" fill="none" />
  </g>
</svg>