<?xml version="1.0" encoding="utf-8"?>
<svg version="1.1" xmlns:xlink="http://www.w3.org/1999/xlink" width="1078px" height="293px" xmlns="http://www.w3.org/2000/svg">
  <g transform="matrix(1 0 0 1 1360 -2923 )">
    <path d="M 0.5 0  L 0.5 290.650231124807  C 0 291.406101694915  0.668692380056454 292  1.51975540921919 292.5  L 1075.48024459078 292.5  C 1076.33130761994 292  1077 291.406101694915  1077.5 290.650231124807  L 1077.5 0  L 0.5 0  Z " fill-rule="nonzero" fill="#ffffff" stroke="none" transform="matrix(1 0 0 1 -1360 2923 )" />
    <path d="M 0.5 0  L 0.5 290.650231124807  C 0 291.406101694915  0.668692380056454 292  1.51975540921919 292.5  L 1075.48024459078 292.5  C 1076.33130761994 292  1077 291.406101694915  1077.5 290.650231124807  L 1077.5 0  " stroke-width="1" stroke="#e9e9e9" fill="none" transform="matrix(1 0 0 1 -1360 2923 )" />
  </g>
</svg>