<?xml version="1.0" encoding="utf-8"?>
<svg version="1.1" xmlns:xlink="http://www.w3.org/1999/xlink" width="14px" height="14px" xmlns="http://www.w3.org/2000/svg">
  <g transform="matrix(1 0 0 1 2480 -931 )">
    <path d="M -2473 932  C -2469.64 932  -2467 934.64  -2467 938  C -2467 941.36  -2469.64 944  -2473 944  C -2476.36 944  -2479 941.36  -2479 938  C -2479 934.64  -2476.36 932  -2473 932  Z " fill-rule="nonzero" fill="#1890ff" stroke="none" />
    <path d="M -2473 932  C -2469.64 932  -2467 934.64  -2467 938  C -2467 941.36  -2469.64 944  -2473 944  C -2476.36 944  -2479 941.36  -2479 938  C -2479 934.64  -2476.36 932  -2473 932  Z " stroke-width="2" stroke="#ffffff" fill="none" />
  </g>
</svg>