<?xml version="1.0" encoding="utf-8"?>
<svg version="1.1" xmlns:xlink="http://www.w3.org/1999/xlink" width="10px" height="10px" xmlns="http://www.w3.org/2000/svg">
  <g transform="matrix(1 0 0 1 2805 -934 )">
    <path d="M -2800 935  C -2797.76 935  -2796 936.76  -2796 939  C -2796 941.24  -2797.76 943  -2800 943  C -2802.24 943  -2804 941.24  -2804 939  C -2804 936.76  -2802.24 935  -2800 935  Z " fill-rule="nonzero" fill="#1890ff" stroke="none" />
    <path d="M -2800 935  C -2797.76 935  -2796 936.76  -2796 939  C -2796 941.24  -2797.76 943  -2800 943  C -2802.24 943  -2804 941.24  -2804 939  C -2804 936.76  -2802.24 935  -2800 935  Z " stroke-width="2" stroke="#ffffff" fill="none" />
  </g>
</svg>