<?xml version="1.0" encoding="utf-8"?>
<svg version="1.1" xmlns:xlink="http://www.w3.org/1999/xlink" width="1073px" height="293px" xmlns="http://www.w3.org/2000/svg">
  <g transform="matrix(1 0 0 1 2859 -1451 )">
    <path d="M 0.5 0  L 0.5 290.650231124807  C 0 291.406101694915  0.665587958607724 292  1.51269990592662 292.5  L 1070.48730009407 292.5  C 1071.33441204139 292  1072 291.406101694915  1072.5 290.650231124807  L 1072.5 0  L 0.5 0  Z " fill-rule="nonzero" fill="#ffffff" stroke="none" transform="matrix(1 0 0 1 -2859 1451 )" />
    <path d="M 0.5 0  L 0.5 290.650231124807  C 0 291.406101694915  0.665587958607724 292  1.51269990592662 292.5  L 1070.48730009407 292.5  C 1071.33441204139 292  1072 291.406101694915  1072.5 290.650231124807  L 1072.5 0  " stroke-width="1" stroke="#e9e9e9" fill="none" transform="matrix(1 0 0 1 -2859 1451 )" />
  </g>
</svg>