<?xml version="1.0" encoding="utf-8"?>
<svg version="1.1" xmlns:xlink="http://www.w3.org/1999/xlink" width="21px" height="21px" xmlns="http://www.w3.org/2000/svg">
  <g transform="matrix(1 0 0 1 -1254 -187 )">
    <path d="M 12.974609375 12.974609375  C 13.658203125 12.291015625  14 11.4661458333333  14 10.5  C 14 9.53385416666666  13.658203125 8.708984375  12.974609375 8.025390625  C 12.291015625 7.341796875  11.4661458333333 7  10.5 7  C 9.53385416666667 7  8.708984375 7.341796875  8.025390625 8.025390625  C 7.341796875 8.708984375  7 9.53385416666666  7 10.5  C 7 11.4661458333333  7.341796875 12.291015625  8.025390625 12.974609375  C 8.708984375 13.658203125  9.53385416666667 14  10.5 14  C 11.4661458333333 14  12.291015625 13.658203125  12.974609375 12.974609375  Z M 20.890625 8.6884765625  C 20.9635416666667 8.7841796875  21 8.89127604166667  21 9.009765625  L 21 12.044921875  C 21 12.154296875  20.9635416666667 12.2591145833333  20.890625 12.359375  C 20.8177083333333 12.4596354166667  20.7265625 12.5188802083333  20.6171875 12.537109375  L 18.087890625 12.919921875  C 17.9147135416667 13.412109375  17.7369791666667 13.8268229166667  17.5546875 14.1640625  C 17.8736979166667 14.6197916666667  18.361328125 15.2486979166667  19.017578125 16.05078125  C 19.1087239583333 16.16015625  19.154296875 16.2740885416667  19.154296875 16.392578125  C 19.154296875 16.5110677083333  19.11328125 16.6158854166667  19.03125 16.70703125  C 18.78515625 17.0442708333333  18.333984375 17.5364583333333  17.677734375 18.18359375  C 17.021484375 18.8307291666667  16.5930989583333 19.154296875  16.392578125 19.154296875  C 16.283203125 19.154296875  16.1647135416667 19.11328125  16.037109375 19.03125  L 14.150390625 17.5546875  C 13.7493489583333 17.7643229166667  13.3346354166667 17.9375  12.90625 18.07421875  C 12.7604166666667 19.3138020833333  12.6282552083333 20.1614583333333  12.509765625 20.6171875  C 12.4459635416667 20.8723958333333  12.2819010416667 21  12.017578125 21  L 8.982421875 21  C 8.85481770833333 21  8.7431640625 20.9612630208333  8.6474609375 20.8837890625  C 8.5517578125 20.8063151041667  8.49934895833333 20.7083333333333  8.490234375 20.58984375  L 8.107421875 18.07421875  C 7.66080729166667 17.9283854166667  7.25065104166667 17.759765625  6.876953125 17.568359375  L 4.94921875 19.03125  C 4.85807291666667 19.11328125  4.744140625 19.154296875  4.607421875 19.154296875  C 4.47981770833333 19.154296875  4.36588541666667 19.1041666666667  4.265625 19.00390625  C 3.1171875 17.96484375  2.365234375 17.19921875  2.009765625 16.70703125  C 1.94596354166667 16.6158854166667  1.9140625 16.5110677083333  1.9140625 16.392578125  C 1.9140625 16.283203125  1.95052083333333 16.1783854166667  2.0234375 16.078125  C 2.16015625 15.88671875  2.392578125 15.5836588541667  2.720703125 15.1689453125  C 3.048828125 14.7542317708333  3.294921875 14.4329427083333  3.458984375 14.205078125  C 3.212890625 13.7493489583333  3.02604166666667 13.2981770833333  2.8984375 12.8515625  L 0.396484375 12.482421875  C 0.277994791666667 12.4641927083333  0.182291666666667 12.4072265625  0.109375 12.3115234375  C 0.0364583333333333 12.2158203125  0 12.1087239583333  0 11.990234375  L 0 8.955078125  C 0 8.845703125  0.0364583333333333 8.74088541666667  0.109375 8.640625  C 0.182291666666667 8.54036458333333  0.268880208333333 8.48111979166667  0.369140625 8.462890625  L 2.912109375 8.080078125  C 3.03971354166667 7.66080729166667  3.21744791666667 7.24153645833333  3.4453125 6.822265625  C 3.08072916666667 6.302734375  2.59309895833333 5.673828125  1.982421875 4.935546875  C 1.89127604166667 4.826171875  1.845703125 4.716796875  1.845703125 4.607421875  C 1.845703125 4.51627604166667  1.88671875 4.41145833333333  1.96875 4.29296875  C 2.20572916666667 3.96484375  2.65462239583333 3.47493489583333  3.3154296875 2.8232421875  C 3.97623697916667 2.17154947916666  4.40690104166667 1.845703125  4.607421875 1.845703125  C 4.72591145833333 1.845703125  4.84440104166667 1.89127604166667  4.962890625 1.982421875  L 6.849609375 3.4453125  C 7.25065104166667 3.23567708333333  7.66536458333333 3.0625  8.09375 2.92578125  C 8.23958333333333 1.68619791666667  8.37174479166667 0.838541666666665  8.490234375 0.382812499999999  C 8.55403645833333 0.127604166666666  8.71809895833333 0  8.982421875 0  L 12.017578125 0  C 12.1451822916667 0  12.2568359375 0.0387369791666649  12.3525390625 0.116210937499999  C 12.4482421875 0.193684895833331  12.5006510416667 0.291666666666666  12.509765625 0.41015625  L 12.892578125 2.92578125  C 13.3391927083333 3.07161458333333  13.7493489583333 3.240234375  14.123046875 3.431640625  L 16.064453125 1.96875  C 16.146484375 1.88671875  16.255859375 1.845703125  16.392578125 1.845703125  C 16.5110677083333 1.845703125  16.625 1.89127604166667  16.734375 1.982421875  C 17.91015625 3.06705729166667  18.662109375 3.841796875  18.990234375 4.306640625  C 19.0540364583333 4.37955729166667  19.0859375 4.47981770833333  19.0859375 4.607421875  C 19.0859375 4.716796875  19.0494791666667 4.82161458333333  18.9765625 4.921875  C 18.83984375 5.11328125  18.607421875 5.41634114583333  18.279296875 5.8310546875  C 17.951171875 6.24576822916667  17.705078125 6.56705729166667  17.541015625 6.794921875  C 17.7779947916667 7.25065104166667  17.96484375 7.697265625  18.1015625 8.134765625  L 20.603515625 8.517578125  C 20.7220052083333 8.53580729166667  20.8177083333333 8.5927734375  20.890625 8.6884765625  Z " fill-rule="nonzero" fill="#000000" stroke="none" fill-opacity="0.447058823529412" transform="matrix(1 0 0 1 1254 187 )" />
  </g>
</svg>