<?xml version="1.0" encoding="utf-8"?>
<svg version="1.1" xmlns:xlink="http://www.w3.org/1999/xlink" width="8px" height="8px" xmlns="http://www.w3.org/2000/svg">
  <g transform="matrix(1 0 0 1 -935 -130 )">
    <path d="M 7.8515625 6.48611111111111  C 7.95052083333333 6.66203703703703  8 6.87037037037037  8 7.11111111111111  C 8 7.35185185185185  7.95052083333333 7.56018518518518  7.8515625 7.73611111111111  C 7.75260416666667 7.91203703703703  7.63541666666667 8  7.5 8  L 0.5 8  C 0.364583333333333 8  0.247395833333333 7.91203703703703  0.1484375 7.73611111111111  C 0.0494791666666667 7.56018518518518  0 7.35185185185185  0 7.11111111111111  C 0 6.87037037037037  0.0494791666666667 6.66203703703703  0.1484375 6.48611111111111  L 3.6484375 0.263888888888889  C 3.74739583333333 0.0879629629629619  3.86458333333333 0  4 0  C 4.13541666666667 0  4.25260416666667 0.0879629629629619  4.3515625 0.263888888888889  L 7.8515625 6.48611111111111  Z " fill-rule="nonzero" fill="#d9001b" stroke="none" transform="matrix(1 0 0 1 935 130 )" />
  </g>
</svg>