<?xml version="1.0" encoding="utf-8"?>
<svg version="1.1" xmlns:xlink="http://www.w3.org/1999/xlink" width="14px" height="14px" xmlns="http://www.w3.org/2000/svg">
  <g transform="matrix(1 0 0 1 -6 -145 )">
    <path d="M 13 148  C 15.24 148  17 149.76  17 152  C 17 154.24  15.24 156  13 156  C 10.76 156  9 154.24  9 152  C 9 149.76  10.76 148  13 148  Z " fill-rule="nonzero" fill="#ffffff" stroke="none" />
    <path d="M 13 147  C 15.8 147  18 149.2  18 152  C 18 154.8  15.8 157  13 157  C 10.2 157  8 154.8  8 152  C 8 149.2  10.2 147  13 147  Z " stroke-width="4" stroke="#009090" fill="none" />
  </g>
</svg>