<?xml version="1.0" encoding="utf-8"?>
<svg version="1.1" xmlns:xlink="http://www.w3.org/1999/xlink" width="40px" height="50px" xmlns="http://www.w3.org/2000/svg">
  <defs>
    <filter x="874px" y="426px" width="40px" height="50px" filterUnits="userSpaceOnUse" id="filter196">
      <feOffset dx="1" dy="1" in="SourceAlpha" result="shadowOffsetInner" />
      <feGaussianBlur stdDeviation="2.5" in="shadowOffsetInner" result="shadowGaussian" />
      <feComposite in2="shadowGaussian" operator="atop" in="SourceAlpha" result="shadowComposite" />
      <feColorMatrix type="matrix" values="0 0 0 0 0  0 0 0 0 0  0 0 0 0 0  0 0 0 0.698039215686274 0  " in="shadowComposite" />
    </filter>
    <g id="widget197">
      <path d="M 893 469.036928468354  C 887.2 459.40734059591  878.5 453.629587872444  878.5 444  C 878.5 438.985714285714  881.4 430.5  893 430.5  C 904.6 430.5  907.5 438.985714285714  907.5 444  C 907.5 453.629587872444  898.8 459.40734059591  893 469.036928468354  Z " fill-rule="nonzero" fill="#009dd9" stroke="none" />
      <path d="M 893 470  C 887 460  878 454  878 444  C 878 438.8  881 430  893 430  C 905 430  908 438.8  908 444  C 908 454  899 460  893 470  Z M 893 468.073856936707  C 898.6 458.81468119182  907 453.259175744887  907 444  C 907 439.171428571429  904.2 431  893 431  C 881.8 431  879 439.171428571429  879 444  C 879 453.259175744887  887.4 458.81468119182  893 468.073856936707  Z " fill-rule="nonzero" fill="#ffffff" stroke="none" />
    </g>
  </defs>
  <g transform="matrix(1 0 0 1 -874 -426 )">
    <use xlink:href="#widget197" filter="url(#filter196)" />
    <use xlink:href="#widget197" />
  </g>
</svg>