<?xml version="1.0" encoding="utf-8"?>
<svg version="1.1" xmlns:xlink="http://www.w3.org/1999/xlink" width="40px" height="40px" xmlns="http://www.w3.org/2000/svg">
  <defs>
    <filter x="1640px" y="236px" width="40px" height="40px" filterUnits="userSpaceOnUse" id="filter198">
      <feOffset dx="1" dy="1" in="SourceAlpha" result="shadowOffsetInner" />
      <feGaussianBlur stdDeviation="2.5" in="shadowOffsetInner" result="shadowGaussian" />
      <feComposite in2="shadowGaussian" operator="atop" in="SourceAlpha" result="shadowComposite" />
      <feColorMatrix type="matrix" values="0 0 0 0 0  0 0 0 0 0  0 0 0 0 0  0 0 0 0.698039215686274 0  " in="shadowComposite" />
    </filter>
    <g id="widget199">
      <path d="M 1659 240  C 1667.4 240  1674 246.6  1674 255  C 1674 263.4  1667.4 270  1659 270  C 1650.6 270  1644 263.4  1644 255  C 1644 246.6  1650.6 240  1659 240  Z " fill-rule="nonzero" fill="#009dd9" stroke="none" />
      <path d="M 1659 240.5  C 1667.12 240.5  1673.5 246.88  1673.5 255  C 1673.5 263.12  1667.12 269.5  1659 269.5  C 1650.88 269.5  1644.5 263.12  1644.5 255  C 1644.5 246.88  1650.88 240.5  1659 240.5  Z " stroke-width="1" stroke="#ffffff" fill="none" />
    </g>
  </defs>
  <g transform="matrix(1 0 0 1 -1640 -236 )">
    <use xlink:href="#widget199" filter="url(#filter198)" />
    <use xlink:href="#widget199" />
  </g>
</svg>