<?xml version="1.0" encoding="utf-8"?>
<svg version="1.1" xmlns:xlink="http://www.w3.org/1999/xlink" width="12px" height="19px" xmlns="http://www.w3.org/2000/svg">
  <defs>
    <mask fill="white" id="clip208">
      <path d="M 1.13344887348354 0.201450892857143  L 11.7816291161179 11.05859375  C 11.9965337954939 11.2706473214286  12.0450606585789 11.5145089285714  11.9272097053726 11.7901785714286  C 11.8093587521664 12.0729166666667  11.6048526863085 12.2142857142857  11.313691507799 12.2142857142857  L 7.34142114384749 12.2142857142857  L 9.4315424610052 17.2611607142857  C 9.50086655112652 17.4378720238095  9.50086655112652 17.6110491071429  9.4315424610052 17.7806919642857  C 9.36221837088388 17.9503348214286  9.24436741767764 18.0740327380952  9.07798960138648 18.1517857142857  L 7.23743500866551 18.9469866071429  C 7.06412478336222 19.0176711309524  6.89428076256499 19.0176711309524  6.72790294627383 18.9469866071429  C 6.56152512998267 18.8763020833333  6.44020797227036 18.7561383928571  6.36395147313691 18.5864955357143  L 4.37781629116118 13.7940848214286  L 1.13344887348354 17.1021205357143  C 1.00173310225303 17.2364211309524  0.84575389948007 17.3035714285714  0.665511265164645 17.3035714285714  C 0.582322357019064 17.3035714285714  0.499133448873484 17.285900297619  0.415944540727903 17.2505580357143  C 0.138648180242634 17.1303943452381  0 16.921875  0 16.625  L 0 0.678571428571428  C 0 0.381696428571428  0.138648180242634 0.173177083333332  0.415944540727903 0.0530133928571435  C 0.499133448873484 0.0176711309523812  0.582322357019064 0  0.665511265164645 0  C 0.852686308492201 0  1.00866551126516 0.0671502976190492  1.13344887348354 0.201450892857143  Z " fill-rule="evenodd" />
    </mask>
  </defs>
  <g transform="matrix(1 0 0 1 -1692 -1337 )">
    <path d="M 1.13344887348354 0.201450892857143  L 11.7816291161179 11.05859375  C 11.9965337954939 11.2706473214286  12.0450606585789 11.5145089285714  11.9272097053726 11.7901785714286  C 11.8093587521664 12.0729166666667  11.6048526863085 12.2142857142857  11.313691507799 12.2142857142857  L 7.34142114384749 12.2142857142857  L 9.4315424610052 17.2611607142857  C 9.50086655112652 17.4378720238095  9.50086655112652 17.6110491071429  9.4315424610052 17.7806919642857  C 9.36221837088388 17.9503348214286  9.24436741767764 18.0740327380952  9.07798960138648 18.1517857142857  L 7.23743500866551 18.9469866071429  C 7.06412478336222 19.0176711309524  6.89428076256499 19.0176711309524  6.72790294627383 18.9469866071429  C 6.56152512998267 18.8763020833333  6.44020797227036 18.7561383928571  6.36395147313691 18.5864955357143  L 4.37781629116118 13.7940848214286  L 1.13344887348354 17.1021205357143  C 1.00173310225303 17.2364211309524  0.84575389948007 17.3035714285714  0.665511265164645 17.3035714285714  C 0.582322357019064 17.3035714285714  0.499133448873484 17.285900297619  0.415944540727903 17.2505580357143  C 0.138648180242634 17.1303943452381  0 16.921875  0 16.625  L 0 0.678571428571428  C 0 0.381696428571428  0.138648180242634 0.173177083333332  0.415944540727903 0.0530133928571435  C 0.499133448873484 0.0176711309523812  0.582322357019064 0  0.665511265164645 0  C 0.852686308492201 0  1.00866551126516 0.0671502976190492  1.13344887348354 0.201450892857143  Z " fill-rule="nonzero" fill="#ffffff" stroke="none" transform="matrix(1 0 0 1 1692 1337 )" />
    <path d="M 1.13344887348354 0.201450892857143  L 11.7816291161179 11.05859375  C 11.9965337954939 11.2706473214286  12.0450606585789 11.5145089285714  11.9272097053726 11.7901785714286  C 11.8093587521664 12.0729166666667  11.6048526863085 12.2142857142857  11.313691507799 12.2142857142857  L 7.34142114384749 12.2142857142857  L 9.4315424610052 17.2611607142857  C 9.50086655112652 17.4378720238095  9.50086655112652 17.6110491071429  9.4315424610052 17.7806919642857  C 9.36221837088388 17.9503348214286  9.24436741767764 18.0740327380952  9.07798960138648 18.1517857142857  L 7.23743500866551 18.9469866071429  C 7.06412478336222 19.0176711309524  6.89428076256499 19.0176711309524  6.72790294627383 18.9469866071429  C 6.56152512998267 18.8763020833333  6.44020797227036 18.7561383928571  6.36395147313691 18.5864955357143  L 4.37781629116118 13.7940848214286  L 1.13344887348354 17.1021205357143  C 1.00173310225303 17.2364211309524  0.84575389948007 17.3035714285714  0.665511265164645 17.3035714285714  C 0.582322357019064 17.3035714285714  0.499133448873484 17.285900297619  0.415944540727903 17.2505580357143  C 0.138648180242634 17.1303943452381  0 16.921875  0 16.625  L 0 0.678571428571428  C 0 0.381696428571428  0.138648180242634 0.173177083333332  0.415944540727903 0.0530133928571435  C 0.499133448873484 0.0176711309523812  0.582322357019064 0  0.665511265164645 0  C 0.852686308492201 0  1.00866551126516 0.0671502976190492  1.13344887348354 0.201450892857143  Z " stroke-width="2" stroke="#555555" fill="none" transform="matrix(1 0 0 1 1692 1337 )" mask="url(#clip208)" />
  </g>
</svg>