<?xml version="1.0" encoding="utf-8"?>
<svg version="1.1" xmlns:xlink="http://www.w3.org/1999/xlink" width="106px" height="10px" preserveAspectRatio="xMinYMid meet" viewBox="692 3081  106 8" xmlns="http://www.w3.org/2000/svg">
  <path d="M 798 3085.5  L 702 3085.5  A 5 5 0 0 1 697.5 3080.5 L 697.5 2654  A 5 5 0 0 0 692.5 2649.5 L 473.5 2649.5  A 0.5 0.5 0 0 1 473.5 2649 " stroke-width="1" stroke="#1890ff" fill="none" />
  <path d="M 475.214601836603 2646.5  A 3 3 0 0 0 472.214601836603 2649.5 A 3 3 0 0 0 475.214601836603 2652.5 A 3 3 0 0 0 478.214601836603 2649.5 A 3 3 0 0 0 475.214601836603 2646.5 Z " fill-rule="nonzero" fill="#1890ff" stroke="none" />
</svg>